<?xml version="1.0" encoding="UTF-8"?>
<!DOCTYPE svg PUBLIC "-//W3C//DTD SVG 1.1//EN" "http://www.w3.org/Graphics/SVG/1.1/DTD/svg11.dtd">
<svg xmlns="http://www.w3.org/2000/svg" version="1.1" width="337px" height="275px" style="shape-rendering:geometricPrecision; text-rendering:geometricPrecision; image-rendering:optimizeQuality; fill-rule:evenodd; clip-rule:evenodd" xmlns:xlink="http://www.w3.org/1999/xlink">
<g><path style="opacity:1" fill="#185b44" d="M 154.5,26.5 C 158.932,27.9883 163.599,28.9883 168.5,29.5C 174.825,28.3902 181.158,27.3902 187.5,26.5C 190.475,29.3229 193.808,31.6563 197.5,33.5C 199.578,36.0507 202.244,37.884 205.5,39C 210.243,40.4696 214.909,42.1363 219.5,44C 220.381,44.7083 221.047,45.5416 221.5,46.5C 223.926,51.0204 226.093,55.6871 228,60.5C 232.398,64.7287 236.564,69.0621 240.5,73.5C 240.5,77.5 240.5,81.5 240.5,85.5C 239.833,87.8333 239.167,90.1667 238.5,92.5C 238.666,86.1579 238.5,79.8246 238,73.5C 237.292,72.6195 236.458,71.9528 235.5,71.5C 232.833,68.1667 229.833,65.1667 226.5,62.5C 223.807,57.7751 221.64,52.7751 220,47.5C 218.871,45.8588 217.371,44.8588 215.5,44.5C 210.586,42.5183 205.586,40.6849 200.5,39C 197.29,36.2833 193.956,33.7833 190.5,31.5C 188.978,29.6668 186.978,28.6668 184.5,28.5C 179.162,29.5014 173.829,30.5014 168.5,31.5C 165.508,31.0343 162.508,30.7009 159.5,30.5C 156.367,29.2568 153.033,28.7568 149.5,29C 144.986,32.0912 140.653,35.4245 136.5,39C 131.429,40.9647 126.429,42.798 121.5,44.5C 117.631,45.7093 115.631,48.376 115.5,52.5C 112.765,58.937 108.765,64.6036 103.5,69.5C 102.5,69.8333 101.833,70.5 101.5,71.5C 100.542,71.9528 99.7083,72.6195 99,73.5C 98.829,81.3443 98.329,89.011 97.5,96.5C 97.7373,95.209 97.404,94.209 96.5,93.5C 96.5,86.8333 96.5,80.1667 96.5,73.5C 99.4715,70.1924 102.471,66.859 105.5,63.5C 106.794,62.7101 107.961,61.7101 109,60.5C 111.165,54.6709 113.998,49.1709 117.5,44C 124.492,41.8391 131.159,39.0057 137.5,35.5C 140.956,33.2167 144.29,30.7167 147.5,28C 149.677,26.7978 152.011,26.2978 154.5,26.5 Z"/></g>
<g><path style="opacity:0.075" fill="#335352" d="M 249.5,76.5 C 248.778,76.9175 248.278,77.5842 248,78.5C 247.802,76.6183 247.302,74.9516 246.5,73.5C 246.392,71.2166 245.559,69.2166 244,67.5C 239.86,64.272 236.194,60.6053 233,56.5C 231.914,52.6536 230.081,49.3203 227.5,46.5C 227.378,42.8527 225.712,40.0194 222.5,38C 215.088,36.0331 208.088,33.1997 201.5,29.5C 198.094,25.9517 194.094,23.1184 189.5,21C 182.132,20.7263 174.798,21.2263 167.5,22.5C 162.309,22.0285 157.142,21.3618 152,20.5C 149.409,20.5653 146.909,21.0653 144.5,22C 139.982,25.7524 135.316,29.2524 130.5,32.5C 124.029,33.6564 118.029,35.9898 112.5,39.5C 109.139,44.8878 106.306,50.5545 104,56.5C 101.628,58.7032 99.4611,61.0365 97.5,63.5C 94.7997,65.2344 92.7997,67.5677 91.5,70.5C 90.671,77.989 90.171,85.6557 90,93.5C 88.7633,98.3729 87.2633,103.04 85.5,107.5C 85.7678,105.901 85.4345,104.568 84.5,103.5C 88.3851,95.3689 89.3851,86.8689 87.5,78C 87.5229,75.0746 88.0229,72.2413 89,69.5C 92.6321,64.8663 96.6321,60.533 101,56.5C 104.044,51.3771 106.711,46.0437 109,40.5C 110.5,39 112,37.5 113.5,36C 119.091,33.8029 124.758,31.8029 130.5,30C 135.558,25.9429 140.892,22.2762 146.5,19C 153.888,18.5077 161.221,19.0077 168.5,20.5C 175.766,18.8944 183.099,18.3944 190.5,19C 195.519,21.8425 200.186,25.1759 204.5,29C 210.833,31.3333 217.167,33.6667 223.5,36C 228.733,41.6261 232.566,48.1261 235,55.5C 238.667,59.1667 242.333,62.8333 246,66.5C 247.868,69.6051 249.035,72.9385 249.5,76.5 Z"/></g>
<g><path style="opacity:1" fill="#74f0b0" d="M 159.5,30.5 C 156.102,30.1796 152.768,30.513 149.5,31.5C 146.651,34.5129 143.485,37.1796 140,39.5C 139.689,40.7425 140.189,41.7425 141.5,42.5C 140.672,43.4147 139.672,44.0814 138.5,44.5C 137.719,43.2634 136.719,42.2634 135.5,41.5C 133.227,42.6509 130.894,43.6509 128.5,44.5C 131.182,45.8804 134.016,46.8804 137,47.5C 141.432,45.0405 145.598,42.8739 149.5,41C 153.152,40.111 156.818,39.7776 160.5,40C 157.937,40.763 157.937,41.263 160.5,41.5C 161.442,41.3918 162.275,41.0585 163,40.5C 167.134,41.1959 171.3,41.8625 175.5,42.5C 179.93,41.6836 184.263,41.3503 188.5,41.5C 191.295,43.0007 194.628,44.834 198.5,47C 201.661,47.0627 204.661,46.2294 207.5,44.5C 203.964,43.6193 200.63,42.286 197.5,40.5C 197.709,39.914 198.043,39.414 198.5,39C 196.63,37.6338 194.63,36.4672 192.5,35.5C 191.295,34.4231 190.628,33.0898 190.5,31.5C 193.956,33.7833 197.29,36.2833 200.5,39C 205.586,40.6849 210.586,42.5183 215.5,44.5C 217.529,48.2425 218.862,52.2425 219.5,56.5C 218.442,57.6002 217.608,58.9336 217,60.5C 215.833,58.8333 214.667,57.1667 213.5,55.5C 211.667,54.9479 210,54.1145 208.5,53C 208.833,52.6667 209.167,52.3333 209.5,52C 182.5,51.3333 155.5,51.3333 128.5,52C 126.976,55.2915 125.643,55.1248 124.5,51.5C 123.473,52.7914 122.473,52.7914 121.5,51.5C 120.167,49.1667 120.167,46.8333 121.5,44.5C 126.429,42.798 131.429,40.9647 136.5,39C 140.653,35.4245 144.986,32.0912 149.5,29C 153.033,28.7568 156.367,29.2568 159.5,30.5 Z"/></g>
<g><path style="opacity:1" fill="#7beaad" d="M 201.5,29.5 C 208.088,33.1997 215.088,36.0331 222.5,38C 225.712,40.0194 227.378,42.8527 227.5,46.5C 227.5,47.8333 227.5,49.1667 227.5,50.5C 225.115,49.7075 223.115,48.3742 221.5,46.5C 221.047,45.5416 220.381,44.7083 219.5,44C 214.909,42.1363 210.243,40.4696 205.5,39C 202.244,37.884 199.578,36.0507 197.5,33.5C 198.209,32.596 199.209,32.2627 200.5,32.5C 200.263,31.209 200.596,30.209 201.5,29.5 Z"/></g>
<g><path style="opacity:1" fill="#7af3ac" d="M 190.5,31.5 C 190.628,33.0898 191.295,34.4231 192.5,35.5C 194.63,36.4672 196.63,37.6338 198.5,39C 198.043,39.414 197.709,39.914 197.5,40.5C 200.63,42.286 203.964,43.6193 207.5,44.5C 204.661,46.2294 201.661,47.0627 198.5,47C 194.628,44.834 191.295,43.0007 188.5,41.5C 184.263,41.3503 179.93,41.6836 175.5,42.5C 171.3,41.8625 167.134,41.1959 163,40.5C 162.275,41.0585 161.442,41.3918 160.5,41.5C 157.937,41.263 157.937,40.763 160.5,40C 156.818,39.7776 153.152,40.111 149.5,41C 145.598,42.8739 141.432,45.0405 137,47.5C 134.016,46.8804 131.182,45.8804 128.5,44.5C 130.894,43.6509 133.227,42.6509 135.5,41.5C 136.719,42.2634 137.719,43.2634 138.5,44.5C 139.672,44.0814 140.672,43.4147 141.5,42.5C 140.189,41.7425 139.689,40.7425 140,39.5C 143.485,37.1796 146.651,34.5129 149.5,31.5C 152.768,30.513 156.102,30.1796 159.5,30.5C 162.508,30.7009 165.508,31.0343 168.5,31.5C 173.829,30.5014 179.162,29.5014 184.5,28.5C 186.978,28.6668 188.978,29.6668 190.5,31.5 Z"/></g>
<g><path style="opacity:1" fill="#86f1a9" d="M 201.5,29.5 C 200.596,30.209 200.263,31.209 200.5,32.5C 199.209,32.2627 198.209,32.596 197.5,33.5C 193.808,31.6563 190.475,29.3229 187.5,26.5C 176.681,27.2104 165.681,27.2104 154.5,26.5C 152.011,26.2978 149.677,26.7978 147.5,28C 144.29,30.7167 140.956,33.2167 137.5,35.5C 132.801,35.2825 128.467,36.1158 124.5,38C 126.254,35.7883 128.254,33.955 130.5,32.5C 135.316,29.2524 139.982,25.7524 144.5,22C 146.909,21.0653 149.409,20.5653 152,20.5C 157.142,21.3618 162.309,22.0285 167.5,22.5C 174.798,21.2263 182.132,20.7263 189.5,21C 194.094,23.1184 198.094,25.9517 201.5,29.5 Z"/></g>
<g><path style="opacity:1" fill="#7bd69e" d="M 187.5,26.5 C 181.158,27.3902 174.825,28.3902 168.5,29.5C 163.599,28.9883 158.932,27.9883 154.5,26.5C 165.681,27.2104 176.681,27.2104 187.5,26.5 Z"/></g>
<g><path style="opacity:1" fill="#6cefb5" d="M 121.5,51.5 C 122.473,52.7914 123.473,52.7914 124.5,51.5C 125.643,55.1248 126.976,55.2915 128.5,52C 155.5,51.3333 182.5,51.3333 209.5,52C 209.167,52.3333 208.833,52.6667 208.5,53C 210,54.1145 211.667,54.9479 213.5,55.5C 214.667,57.1667 215.833,58.8333 217,60.5C 217.608,58.9336 218.442,57.6002 219.5,56.5C 219.966,58.2012 219.966,59.7012 219.5,61C 220.973,61.7096 221.64,62.8762 221.5,64.5C 217.337,63.3476 214.337,60.6809 212.5,56.5C 211.188,58.7363 211.521,60.7363 213.5,62.5C 211.674,62.9202 209.674,62.9202 207.5,62.5C 206.722,60.7753 206.389,59.1086 206.5,57.5C 202.306,58.5634 197.806,58.5634 193,57.5C 191.635,57.8443 190.468,58.5109 189.5,59.5C 188.304,59.1543 188.304,58.6543 189.5,58C 186.653,57.0561 184.153,57.5561 182,59.5C 181.692,58.6919 181.192,58.0253 180.5,57.5C 177.92,58.3287 174.92,58.3287 171.5,57.5C 169.285,57.6705 167.285,58.3372 165.5,59.5C 164.304,59.1543 164.304,58.6543 165.5,58C 164.333,57.8333 163.167,57.6667 162,57.5C 159.859,58.1115 157.859,58.1115 156,57.5C 155.692,58.3081 155.192,58.9747 154.5,59.5C 153.304,59.1543 153.304,58.6543 154.5,58C 152.567,57.2174 151.067,57.7174 150,59.5C 148.451,56.9974 146.784,56.9974 145,59.5C 144.667,58.8333 144.333,58.1667 144,57.5C 142.333,60.1667 140.667,60.1667 139,57.5C 138,60.1667 137,60.1667 136,57.5C 133.558,58.0876 131.058,58.4209 128.5,58.5C 127.833,58.3333 127.167,58.1667 126.5,58C 125.259,55.3774 123.592,53.2107 121.5,51.5 Z"/></g>
<g><path style="opacity:1" fill="#69eeb6" d="M 121.5,44.5 C 120.167,46.8333 120.167,49.1667 121.5,51.5C 123.592,53.2107 125.259,55.3774 126.5,58C 127.167,58.1667 127.833,58.3333 128.5,58.5C 131.058,58.4209 133.558,58.0876 136,57.5C 137,60.1667 138,60.1667 139,57.5C 140.667,60.1667 142.333,60.1667 144,57.5C 144.333,58.1667 144.667,58.8333 145,59.5C 146.784,56.9974 148.451,56.9974 150,59.5C 151.067,57.7174 152.567,57.2174 154.5,58C 153.304,58.6543 153.304,59.1543 154.5,59.5C 155.192,58.9747 155.692,58.3081 156,57.5C 157.859,58.1115 159.859,58.1115 162,57.5C 163.167,57.6667 164.333,57.8333 165.5,58C 164.304,58.6543 164.304,59.1543 165.5,59.5C 167.285,58.3372 169.285,57.6705 171.5,57.5C 174.92,58.3287 177.92,58.3287 180.5,57.5C 181.192,58.0253 181.692,58.6919 182,59.5C 184.153,57.5561 186.653,57.0561 189.5,58C 188.304,58.6543 188.304,59.1543 189.5,59.5C 190.468,58.5109 191.635,57.8443 193,57.5C 197.806,58.5634 202.306,58.5634 206.5,57.5C 206.389,59.1086 206.722,60.7753 207.5,62.5C 180.926,62.1718 154.426,62.5052 128,63.5C 127,62.1667 126,60.8333 125,59.5C 124.804,61.2861 123.971,62.6195 122.5,63.5C 120.94,61.5712 118.94,60.2378 116.5,59.5C 115.614,58.675 115.281,57.675 115.5,56.5C 115.5,55.1667 115.5,53.8333 115.5,52.5C 115.631,48.376 117.631,45.7093 121.5,44.5 Z"/></g>
<g><path style="opacity:1" fill="#72e7b1" d="M 130.5,32.5 C 128.254,33.955 126.254,35.7883 124.5,38C 128.467,36.1158 132.801,35.2825 137.5,35.5C 131.159,39.0057 124.492,41.8391 117.5,44C 113.998,49.1709 111.165,54.6709 109,60.5C 107.961,61.7101 106.794,62.7101 105.5,63.5C 104.167,63.5 102.833,63.5 101.5,63.5C 99.8984,68.4693 98.5651,68.4693 97.5,63.5C 99.4611,61.0365 101.628,58.7032 104,56.5C 106.306,50.5545 109.139,44.8878 112.5,39.5C 118.029,35.9898 124.029,33.6564 130.5,32.5 Z"/></g>
<g><path style="opacity:1" fill="#66edba" d="M 115.5,56.5 C 115.281,57.675 115.614,58.675 116.5,59.5C 118.94,60.2378 120.94,61.5712 122.5,63.5C 123.971,62.6195 124.804,61.2861 125,59.5C 126,60.8333 127,62.1667 128,63.5C 154.426,62.5052 180.926,62.1718 207.5,62.5C 209.674,62.9202 211.674,62.9202 213.5,62.5C 211.521,60.7363 211.188,58.7363 212.5,56.5C 214.337,60.6809 217.337,63.3476 221.5,64.5C 185.571,65.6629 148.905,65.8295 111.5,65C 112.738,64.31 112.738,63.81 111.5,63.5C 112.874,61.1417 114.207,58.8083 115.5,56.5 Z"/></g>
<g><path style="opacity:1" fill="#69e3ba" d="M 221.5,46.5 C 223.115,48.3742 225.115,49.7075 227.5,50.5C 227.5,49.1667 227.5,47.8333 227.5,46.5C 230.081,49.3203 231.914,52.6536 233,56.5C 236.194,60.6053 239.86,64.272 244,67.5C 245.559,69.2166 246.392,71.2166 246.5,73.5C 246.5,75.1667 246.5,76.8333 246.5,78.5C 245.617,84.6783 244.784,91.0116 244,97.5C 243.237,89.2015 242.071,81.2015 240.5,73.5C 236.564,69.0621 232.398,64.7287 228,60.5C 226.093,55.6871 223.926,51.0204 221.5,46.5 Z"/></g>
<g><path style="opacity:1" fill="#60e9bc" d="M 115.5,52.5 C 115.5,53.8333 115.5,55.1667 115.5,56.5C 114.207,58.8083 112.874,61.1417 111.5,63.5C 109.04,65.5169 109.373,67.3502 112.5,69C 150.861,68.6924 189.195,69.1924 227.5,70.5C 227.833,69.6667 228.167,68.8333 228.5,68C 228.046,66.0614 227.379,64.228 226.5,62.5C 229.833,65.1667 232.833,68.1667 235.5,71.5C 236.562,73.2341 236.562,74.9008 235.5,76.5C 233.18,77.4742 230.847,78.4742 228.5,79.5C 226.97,79.3601 225.97,78.6935 225.5,77.5C 225.785,75.712 225.452,74.0453 224.5,72.5C 203.212,73.4887 181.879,73.822 160.5,73.5C 160.768,75.099 160.434,76.4324 159.5,77.5C 159.5,76.8333 159.5,76.1667 159.5,75.5C 159.144,74.1301 158.31,73.1301 157,72.5C 152.481,72.9221 148.147,73.9221 144,75.5C 132.754,73.5346 121.254,72.8679 109.5,73.5C 109.657,74.8734 109.49,76.2068 109,77.5C 106.084,77.4901 103.917,75.8234 102.5,72.5C 103.127,71.5832 103.461,70.5832 103.5,69.5C 108.765,64.6036 112.765,58.937 115.5,52.5 Z"/></g>
<g><path style="opacity:1" fill="#64ebba" d="M 215.5,44.5 C 217.371,44.8588 218.871,45.8588 220,47.5C 221.64,52.7751 223.807,57.7751 226.5,62.5C 227.379,64.228 228.046,66.0614 228.5,68C 228.167,68.8333 227.833,69.6667 227.5,70.5C 189.195,69.1924 150.861,68.6924 112.5,69C 109.373,67.3502 109.04,65.5169 111.5,63.5C 112.738,63.81 112.738,64.31 111.5,65C 148.905,65.8295 185.571,65.6629 221.5,64.5C 221.64,62.8762 220.973,61.7096 219.5,61C 219.966,59.7012 219.966,58.2012 219.5,56.5C 218.862,52.2425 217.529,48.2425 215.5,44.5 Z"/></g>
<g><path style="opacity:1" fill="#5ce9bf" d="M 225.5,77.5 C 223.629,77.8588 222.129,78.8588 221,80.5C 203.846,80.4231 183.679,80.0898 160.5,79.5C 160.167,78.8333 159.833,78.1667 159.5,77.5C 160.434,76.4324 160.768,75.099 160.5,73.5C 181.879,73.822 203.212,73.4887 224.5,72.5C 225.452,74.0453 225.785,75.712 225.5,77.5 Z"/></g>
<g><path style="opacity:1" fill="#5ce9bf" d="M 103.5,69.5 C 103.461,70.5832 103.127,71.5832 102.5,72.5C 103.917,75.8234 106.084,77.4901 109,77.5C 109.49,76.2068 109.657,74.8734 109.5,73.5C 121.254,72.8679 132.754,73.5346 144,75.5C 148.147,73.9221 152.481,72.9221 157,72.5C 158.31,73.1301 159.144,74.1301 159.5,75.5C 158.167,75.5 156.833,75.5 155.5,75.5C 155.719,76.675 155.386,77.675 154.5,78.5C 152.618,79.0933 150.785,79.7599 149,80.5C 147.853,79.5419 146.853,79.8753 146,81.5C 145.333,80.8333 144.667,80.1667 144,79.5C 134,80.8333 124,80.8333 114,79.5C 108.912,82.6345 104.079,82.6345 99.5,79.5C 99.5838,76.6726 100.25,74.006 101.5,71.5C 101.833,70.5 102.5,69.8333 103.5,69.5 Z"/></g>
<g><path style="opacity:1" fill="#56e7c3" d="M 159.5,75.5 C 159.5,76.1667 159.5,76.8333 159.5,77.5C 159.833,78.1667 160.167,78.8333 160.5,79.5C 160.167,79.5 159.833,79.5 159.5,79.5C 157.171,77.9976 155.837,78.6643 155.5,81.5C 154.504,81.5858 153.671,81.2524 153,80.5C 152.432,85.2858 150.099,88.9524 146,91.5C 133.246,90.5109 120.413,90.1776 107.5,90.5C 107.5,91.5 107.5,92.5 107.5,93.5C 105.234,93.8588 103.401,93.1922 102,91.5C 101.51,92.7932 101.343,94.1266 101.5,95.5C 100.657,90.8939 99.9899,85.5606 99.5,79.5C 104.079,82.6345 108.912,82.6345 114,79.5C 124,80.8333 134,80.8333 144,79.5C 144.667,80.1667 145.333,80.8333 146,81.5C 146.853,79.8753 147.853,79.5419 149,80.5C 150.785,79.7599 152.618,79.0933 154.5,78.5C 155.386,77.675 155.719,76.675 155.5,75.5C 156.833,75.5 158.167,75.5 159.5,75.5 Z"/></g>
<g><path style="opacity:1" fill="#55e6c4" d="M 235.5,76.5 C 236.403,79.3915 236.736,82.3915 236.5,85.5C 235.549,87.403 234.549,89.403 233.5,91.5C 234.043,92.8638 234.21,94.1971 234,95.5C 232.178,95.0321 230.011,94.6988 227.5,94.5C 228.244,91.0504 226.91,89.3838 223.5,89.5C 223.5,90.8333 223.5,92.1667 223.5,93.5C 212.828,93.3335 202.161,93.5002 191.5,94C 189.236,94.2362 187.069,94.7362 185,95.5C 185.148,94.175 184.982,93.0084 184.5,92C 187.028,91.3311 187.028,90.4978 184.5,89.5C 183.914,89.7093 183.414,90.0426 183,90.5C 182.503,88.1902 182.337,85.8568 182.5,83.5C 180.821,83.2852 179.821,83.9519 179.5,85.5C 178.736,88.0177 177.736,90.351 176.5,92.5C 174.899,94.8554 173.232,97.3554 171.5,100C 169.236,100.236 167.069,100.736 165,101.5C 164.998,98.9488 164.164,96.9488 162.5,95.5C 160.754,90.4281 159.754,85.0947 159.5,79.5C 159.833,79.5 160.167,79.5 160.5,79.5C 183.679,80.0898 203.846,80.4231 221,80.5C 222.129,78.8588 223.629,77.8588 225.5,77.5C 225.97,78.6935 226.97,79.3601 228.5,79.5C 230.847,78.4742 233.18,77.4742 235.5,76.5 Z"/></g>
<g><path style="opacity:0.357" fill="#3b7871" d="M 246.5,73.5 C 247.302,74.9516 247.802,76.6183 248,78.5C 248.278,77.5842 248.778,76.9175 249.5,76.5C 249.795,78.7354 249.461,80.7354 248.5,82.5C 247.46,84.7312 247.127,88.3978 247.5,93.5C 246.513,88.6946 246.179,83.6946 246.5,78.5C 246.5,76.8333 246.5,75.1667 246.5,73.5 Z"/></g>
<g><path style="opacity:1" fill="#4de3ca" d="M 155.5,81.5 C 153.157,89.59 150.823,97.59 148.5,105.5C 142.929,109.454 137.096,110.454 131,108.5C 130.692,109.308 130.192,109.975 129.5,110.5C 128.686,108.234 128.186,105.9 128,103.5C 127.617,102.944 127.117,102.611 126.5,102.5C 126.5,101.833 126.5,101.167 126.5,100.5C 126.611,99.8826 126.944,99.3826 127.5,99C 124.809,99.0539 122.976,97.8872 122,95.5C 122.558,98.9926 122.225,102.659 121,106.5C 120.667,105.833 120.333,105.167 120,104.5C 114.593,105.473 109.093,105.807 103.5,105.5C 103.167,102.501 103.167,99.6676 103.5,97C 103.164,95.9701 102.497,95.4701 101.5,95.5C 101.343,94.1266 101.51,92.7932 102,91.5C 103.401,93.1922 105.234,93.8588 107.5,93.5C 107.5,92.5 107.5,91.5 107.5,90.5C 120.413,90.1776 133.246,90.5109 146,91.5C 150.099,88.9524 152.432,85.2858 153,80.5C 153.671,81.2524 154.504,81.5858 155.5,81.5 Z"/></g>
<g><path style="opacity:1" fill="#4ce1ca" d="M 236.5,85.5 C 236.759,89.2396 236.426,92.9062 235.5,96.5C 236.04,97.7481 236.707,98.9148 237.5,100C 234.189,99.7852 230.856,99.7852 227.5,100C 226.692,101.706 225.359,102.539 223.5,102.5C 223.5,101.5 223.5,100.5 223.5,99.5C 220.565,99.7167 217.731,100.383 215,101.5C 211.969,100.961 208.969,100.294 206,99.5C 203.702,100.727 201.535,102.06 199.5,103.5C 199.5,104.167 199.5,104.833 199.5,105.5C 196.382,111.159 191.715,113.993 185.5,114C 184.956,113.283 184.289,112.783 183.5,112.5C 182.563,103.162 181.23,94.1623 179.5,85.5C 179.821,83.9519 180.821,83.2852 182.5,83.5C 182.337,85.8568 182.503,88.1902 183,90.5C 183.414,90.0426 183.914,89.7093 184.5,89.5C 187.028,90.4978 187.028,91.3311 184.5,92C 184.982,93.0084 185.148,94.175 185,95.5C 187.069,94.7362 189.236,94.2362 191.5,94C 202.161,93.5002 212.828,93.3335 223.5,93.5C 223.5,92.1667 223.5,90.8333 223.5,89.5C 226.91,89.3838 228.244,91.0504 227.5,94.5C 230.011,94.6988 232.178,95.0321 234,95.5C 234.21,94.1971 234.043,92.8638 233.5,91.5C 234.549,89.403 235.549,87.403 236.5,85.5 Z"/></g>
<g><path style="opacity:1" fill="#5ce4c1" d="M 97.5,63.5 C 98.5651,68.4693 99.8984,68.4693 101.5,63.5C 102.833,63.5 104.167,63.5 105.5,63.5C 102.471,66.859 99.4715,70.1924 96.5,73.5C 95.7784,73.9175 95.2784,74.5842 95,75.5C 94.8311,82.5236 94.3311,89.5236 93.5,96.5C 92.1706,87.8842 91.5039,79.2176 91.5,70.5C 92.7997,67.5677 94.7997,65.2344 97.5,63.5 Z"/></g>
<g><path style="opacity:1" fill="#4be1cc" d="M 235.5,71.5 C 236.458,71.9528 237.292,72.6195 238,73.5C 238.5,79.8246 238.666,86.1579 238.5,92.5C 238.833,95.1667 239.167,97.8333 239.5,100.5C 239.692,103.601 240.358,106.601 241.5,109.5C 240.279,113.339 239.612,113.339 239.5,109.5C 231.613,109.216 224.113,109.883 217,111.5C 216.801,109.598 215.967,108.098 214.5,107C 211.475,106.867 208.808,105.867 206.5,104C 204.19,103.503 201.857,103.337 199.5,103.5C 201.535,102.06 203.702,100.727 206,99.5C 208.969,100.294 211.969,100.961 215,101.5C 217.731,100.383 220.565,99.7167 223.5,99.5C 223.5,100.5 223.5,101.5 223.5,102.5C 225.359,102.539 226.692,101.706 227.5,100C 230.856,99.7852 234.189,99.7852 237.5,100C 236.707,98.9148 236.04,97.7481 235.5,96.5C 236.426,92.9062 236.759,89.2396 236.5,85.5C 236.736,82.3915 236.403,79.3915 235.5,76.5C 236.562,74.9008 236.562,73.2341 235.5,71.5 Z"/></g>
<g><path style="opacity:1" fill="#0c5e5c" d="M 159.5,79.5 C 159.754,85.0947 160.754,90.4281 162.5,95.5C 163.052,102.436 164.552,109.102 167,115.5C 171.273,108.288 174.439,100.622 176.5,92.5C 177.736,90.351 178.736,88.0177 179.5,85.5C 181.23,94.1623 182.563,103.162 183.5,112.5C 181.87,110.974 181.037,108.974 181,106.5C 180.667,100.833 180.333,95.1667 180,89.5C 176.829,98.6706 172.995,107.504 168.5,116C 167.216,116.684 166.049,116.517 165,115.5C 163.668,111.171 162.502,106.838 161.5,102.5C 160.821,95.2655 159.321,88.2655 157,81.5C 155.511,86.7823 154.344,92.1156 153.5,97.5C 150.799,105.429 147.966,113.429 145,121.5C 142.831,125.19 139.664,126.857 135.5,126.5C 135.5,126.167 135.5,125.833 135.5,125.5C 138.785,125.731 141.285,124.397 143,121.5C 145.536,116.393 147.369,111.06 148.5,105.5C 150.823,97.59 153.157,89.59 155.5,81.5C 155.837,78.6643 157.171,77.9976 159.5,79.5 Z"/></g>
<g><path style="opacity:1" fill="#065157" d="M 96.5,93.5 C 97.404,94.209 97.7373,95.209 97.5,96.5C 96.6598,100.861 95.6598,105.195 94.5,109.5C 94.7997,112.766 96.1331,115.433 98.5,117.5C 99.8333,120.5 101.167,123.5 102.5,126.5C 102.737,127.791 102.404,128.791 101.5,129.5C 101.206,126.246 99.873,123.579 97.5,121.5C 95.2996,117.761 93.6329,113.761 92.5,109.5C 94.0421,104.209 95.3754,98.8761 96.5,93.5 Z"/></g>
<g><path style="opacity:1" fill="#4bdfcc" d="M 161.5,102.5 C 160.853,103.274 160.52,104.274 160.5,105.5C 161.72,108.533 162.72,111.699 163.5,115C 161.009,118.388 160.343,118.221 161.5,114.5C 160.311,113.571 158.978,113.238 157.5,113.5C 157.5,114.833 157.5,116.167 157.5,117.5C 156.325,117.719 155.325,117.386 154.5,116.5C 155.646,110.187 154.48,109.854 151,115.5C 150.51,114.207 150.343,112.873 150.5,111.5C 152.263,107.022 153.263,102.355 153.5,97.5C 154.344,92.1156 155.511,86.7823 157,81.5C 159.321,88.2655 160.821,95.2655 161.5,102.5 Z"/></g>
<g><path style="opacity:1" fill="#4ed9cb" d="M 176.5,92.5 C 174.439,100.622 171.273,108.288 167,115.5C 164.552,109.102 163.052,102.436 162.5,95.5C 164.164,96.9488 164.998,98.9488 165,101.5C 167.069,100.736 169.236,100.236 171.5,100C 173.232,97.3554 174.899,94.8554 176.5,92.5 Z"/></g>
<g><path style="opacity:1" fill="#4ed8c9" d="M 240.5,73.5 C 242.071,81.2015 243.237,89.2015 244,97.5C 244.784,91.0116 245.617,84.6783 246.5,78.5C 246.179,83.6946 246.513,88.6946 247.5,93.5C 248.102,97.3641 249.268,101.031 251,104.5C 251.801,107.367 251.634,110.034 250.5,112.5C 247.712,115.242 245.545,118.575 244,122.5C 242.193,120.26 242.026,117.927 243.5,115.5C 243.827,113.512 244.16,111.512 244.5,109.5C 241.747,101.736 240.414,93.7362 240.5,85.5C 240.5,81.5 240.5,77.5 240.5,73.5 Z"/></g>
<g><path style="opacity:1" fill="#43dbd0" d="M 126.5,102.5 C 127.117,102.611 127.617,102.944 128,103.5C 128.186,105.9 128.686,108.234 129.5,110.5C 130.192,109.975 130.692,109.308 131,108.5C 137.096,110.454 142.929,109.454 148.5,105.5C 147.369,111.06 145.536,116.393 143,121.5C 141.285,124.397 138.785,125.731 135.5,125.5C 129.625,119.035 126.625,111.369 126.5,102.5 Z"/></g>
<g><path style="opacity:1" fill="#45decf" d="M 101.5,71.5 C 100.25,74.006 99.5838,76.6726 99.5,79.5C 99.9899,85.5606 100.657,90.8939 101.5,95.5C 102.497,95.4701 103.164,95.9701 103.5,97C 103.167,99.6676 103.167,102.501 103.5,105.5C 109.093,105.807 114.593,105.473 120,104.5C 120.333,105.167 120.667,105.833 121,106.5C 122.225,102.659 122.558,98.9926 122,95.5C 122.976,97.8872 124.809,99.0539 127.5,99C 126.944,99.3826 126.611,99.8826 126.5,100.5C 124.631,102.635 123.964,105.302 124.5,108.5C 124.344,111.066 124.678,113.566 125.5,116C 124.66,117.171 123.827,118.338 123,119.5C 121.34,119.676 119.674,119.009 118,117.5C 114.827,118.528 111.327,118.528 107.5,117.5C 106.328,117.081 105.328,116.415 104.5,115.5C 104.167,116 103.833,116.5 103.5,117C 104.272,118.221 105.272,119.221 106.5,120C 105.663,121.011 105.33,122.178 105.5,123.5C 104.5,123.5 103.5,123.5 102.5,123.5C 102.64,121.876 101.973,120.71 100.5,120C 101.412,118.375 100.745,117.541 98.5,117.5C 96.1331,115.433 94.7997,112.766 94.5,109.5C 95.6598,105.195 96.6598,100.861 97.5,96.5C 98.329,89.011 98.829,81.3443 99,73.5C 99.7083,72.6195 100.542,71.9528 101.5,71.5 Z"/></g>
<g><path style="opacity:1" fill="#198889" d="M 126.5,100.5 C 126.5,101.167 126.5,101.833 126.5,102.5C 126.625,111.369 129.625,119.035 135.5,125.5C 135.5,125.833 135.5,126.167 135.5,126.5C 132.618,125.303 130.451,123.303 129,120.5C 127.151,116.497 125.651,112.497 124.5,108.5C 123.964,105.302 124.631,102.635 126.5,100.5 Z"/></g>
<g><path style="opacity:1" fill="#3fdbd3" d="M 183.5,112.5 C 183.874,114.95 185.374,115.95 188,115.5C 191.926,115.287 195.092,113.62 197.5,110.5C 200.316,111.13 202.982,110.464 205.5,108.5C 207.193,110.279 209.193,110.779 211.5,110C 212.711,109.107 212.711,108.274 211.5,107.5C 209.752,109.993 208.086,109.827 206.5,107C 204.26,106.023 201.927,105.523 199.5,105.5C 199.5,104.833 199.5,104.167 199.5,103.5C 201.857,103.337 204.19,103.503 206.5,104C 208.808,105.867 211.475,106.867 214.5,107C 215.967,108.098 216.801,109.598 217,111.5C 224.113,109.883 231.613,109.216 239.5,109.5C 239.612,113.339 240.279,113.339 241.5,109.5C 240.358,106.601 239.692,103.601 239.5,100.5C 241.859,104.102 242.692,108.102 242,112.5C 240.064,116.919 237.564,120.919 234.5,124.5C 230.93,125.351 228.93,127.684 228.5,131.5C 227.833,131.833 227.167,132.167 226.5,132.5C 225.833,130.167 225.167,127.833 224.5,125.5C 222.866,125.968 221.7,126.968 221,128.5C 220.333,125.833 219.667,125.833 219,128.5C 218.333,125.833 217.667,125.833 217,128.5C 216.333,125.833 215.667,125.833 215,128.5C 214.333,125.833 213.667,125.833 213,128.5C 212.333,125.833 211.667,125.833 211,128.5C 210.333,125.833 209.667,125.833 209,128.5C 208.432,125.31 206.599,123.643 203.5,123.5C 201.246,123.931 199.079,124.597 197,125.5C 195.289,125.561 193.956,124.894 193,123.5C 190.313,123.959 187.479,123.959 184.5,123.5C 183.353,123.818 182.519,124.484 182,125.5C 181.51,124.207 181.343,122.873 181.5,121.5C 179.408,121.561 177.908,122.561 177,124.5C 175.649,122.981 174.149,121.648 172.5,120.5C 171.246,122.259 171.579,123.759 173.5,125C 171.5,125.667 169.5,125.667 167.5,125C 168.167,124.667 168.833,124.333 169.5,124C 164.427,118.888 160.094,119.388 156.5,125.5C 155.833,124.167 155.167,122.833 154.5,121.5C 153.833,122.5 153.167,123.5 152.5,124.5C 151.575,123.359 150.741,123.359 150,124.5C 147.878,119.932 148.045,115.598 150.5,111.5C 150.343,112.873 150.51,114.207 151,115.5C 154.48,109.854 155.646,110.187 154.5,116.5C 155.325,117.386 156.325,117.719 157.5,117.5C 157.5,116.167 157.5,114.833 157.5,113.5C 158.978,113.238 160.311,113.571 161.5,114.5C 160.343,118.221 161.009,118.388 163.5,115C 162.72,111.699 161.72,108.533 160.5,105.5C 160.52,104.274 160.853,103.274 161.5,102.5C 162.502,106.838 163.668,111.171 165,115.5C 166.049,116.517 167.216,116.684 168.5,116C 172.995,107.504 176.829,98.6706 180,89.5C 180.333,95.1667 180.667,100.833 181,106.5C 181.037,108.974 181.87,110.974 183.5,112.5 Z"/></g>
<g><path style="opacity:1" fill="#12696b" d="M 199.5,105.5 C 201.927,105.523 204.26,106.023 206.5,107C 208.086,109.827 209.752,109.993 211.5,107.5C 212.711,108.274 212.711,109.107 211.5,110C 209.193,110.779 207.193,110.279 205.5,108.5C 202.982,110.464 200.316,111.13 197.5,110.5C 195.092,113.62 191.926,115.287 188,115.5C 185.374,115.95 183.874,114.95 183.5,112.5C 184.289,112.783 184.956,113.283 185.5,114C 191.715,113.993 196.382,111.159 199.5,105.5 Z"/></g>
<g><path style="opacity:1" fill="#4bd6cb" d="M 91.5,70.5 C 91.5039,79.2176 92.1706,87.8842 93.5,96.5C 94.3311,89.5236 94.8311,82.5236 95,75.5C 95.2784,74.5842 95.7784,73.9175 96.5,73.5C 96.5,80.1667 96.5,86.8333 96.5,93.5C 95.3754,98.8761 94.0421,104.209 92.5,109.5C 93.6329,113.761 95.2996,117.761 97.5,121.5C 98.6658,124.83 98.6658,128.163 97.5,131.5C 96.9432,129.668 95.9432,128.335 94.5,127.5C 89.3531,121.868 86.3531,115.201 85.5,107.5C 87.2633,103.04 88.7633,98.3729 90,93.5C 90.171,85.6557 90.671,77.989 91.5,70.5 Z"/></g>
<g><path style="opacity:0.435" fill="#0f606d" d="M 240.5,85.5 C 240.414,93.7362 241.747,101.736 244.5,109.5C 244.16,111.512 243.827,113.512 243.5,115.5C 236.697,122.315 233.364,130.648 233.5,140.5C 231.585,145.679 227.918,149.346 222.5,151.5C 222.158,150.662 221.492,150.328 220.5,150.5C 220.833,149.833 221.167,149.167 221.5,148.5C 224.65,148.118 227.317,146.784 229.5,144.5C 231.141,139.627 232.141,134.627 232.5,129.5C 233.537,128.07 234.204,126.403 234.5,124.5C 237.564,120.919 240.064,116.919 242,112.5C 242.692,108.102 241.859,104.102 239.5,100.5C 239.167,97.8333 238.833,95.1667 238.5,92.5C 239.167,90.1667 239.833,87.8333 240.5,85.5 Z"/></g>
<g><path style="opacity:1" fill="#37dad9" d="M 153.5,97.5 C 153.263,102.355 152.263,107.022 150.5,111.5C 148.045,115.598 147.878,119.932 150,124.5C 150.741,123.359 151.575,123.359 152.5,124.5C 153.167,123.5 153.833,122.5 154.5,121.5C 155.167,122.833 155.833,124.167 156.5,125.5C 160.094,119.388 164.427,118.888 169.5,124C 168.833,124.333 168.167,124.667 167.5,125C 169.5,125.667 171.5,125.667 173.5,125C 171.579,123.759 171.246,122.259 172.5,120.5C 174.149,121.648 175.649,122.981 177,124.5C 177.908,122.561 179.408,121.561 181.5,121.5C 181.343,122.873 181.51,124.207 182,125.5C 182.519,124.484 183.353,123.818 184.5,123.5C 187.479,123.959 190.313,123.959 193,123.5C 193.956,124.894 195.289,125.561 197,125.5C 199.079,124.597 201.246,123.931 203.5,123.5C 206.599,123.643 208.432,125.31 209,128.5C 209.667,125.833 210.333,125.833 211,128.5C 211.667,125.833 212.333,125.833 213,128.5C 213.667,125.833 214.333,125.833 215,128.5C 215.667,125.833 216.333,125.833 217,128.5C 217.667,125.833 218.333,125.833 219,128.5C 219.667,125.833 220.333,125.833 221,128.5C 221.7,126.968 222.866,125.968 224.5,125.5C 225.167,127.833 225.833,130.167 226.5,132.5C 227.167,132.167 227.833,131.833 228.5,131.5C 228.93,127.684 230.93,125.351 234.5,124.5C 234.204,126.403 233.537,128.07 232.5,129.5C 231.778,129.082 231.278,128.416 231,127.5C 230.667,131.167 230.333,134.833 230,138.5C 229.292,137.619 228.458,136.953 227.5,136.5C 227.25,135.078 226.417,134.078 225,133.5C 187.706,133.347 150.206,133.514 112.5,134C 111.975,134.692 111.308,135.192 110.5,135.5C 108.794,126.41 107.628,126.743 107,136.5C 106.901,134.347 106.067,132.681 104.5,131.5C 104.204,129.597 103.537,127.93 102.5,126.5C 101.167,123.5 99.8333,120.5 98.5,117.5C 100.745,117.541 101.412,118.375 100.5,120C 101.973,120.71 102.64,121.876 102.5,123.5C 103.5,123.5 104.5,123.5 105.5,123.5C 105.33,122.178 105.663,121.011 106.5,120C 105.272,119.221 104.272,118.221 103.5,117C 103.833,116.5 104.167,116 104.5,115.5C 105.328,116.415 106.328,117.081 107.5,117.5C 111.327,118.528 114.827,118.528 118,117.5C 119.674,119.009 121.34,119.676 123,119.5C 123.827,118.338 124.66,117.171 125.5,116C 124.678,113.566 124.344,111.066 124.5,108.5C 125.651,112.497 127.151,116.497 129,120.5C 130.451,123.303 132.618,125.303 135.5,126.5C 139.664,126.857 142.831,125.19 145,121.5C 147.966,113.429 150.799,105.429 153.5,97.5 Z"/></g>
<g><path style="opacity:1" fill="#2ed8df" d="M 227.5,136.5 C 226.412,139.014 225.078,141.347 223.5,143.5C 212.86,142.002 202.193,140.836 191.5,140C 164.835,139.5 138.169,139.333 111.5,139.5C 111.649,140.552 111.483,141.552 111,142.5C 110.346,141.304 109.846,141.304 109.5,142.5C 109.863,143.183 110.196,143.85 110.5,144.5C 108.951,142.178 107.285,139.845 105.5,137.5C 105.483,135.435 105.15,133.435 104.5,131.5C 106.067,132.681 106.901,134.347 107,136.5C 107.628,126.743 108.794,126.41 110.5,135.5C 111.308,135.192 111.975,134.692 112.5,134C 150.206,133.514 187.706,133.347 225,133.5C 226.417,134.078 227.25,135.078 227.5,136.5 Z"/></g>
<g><path style="opacity:1" fill="#29d6e2" d="M 232.5,129.5 C 232.141,134.627 231.141,139.627 229.5,144.5C 227.317,146.784 224.65,148.118 221.5,148.5C 220.279,147.972 219.113,147.305 218,146.5C 217.667,146.833 217.333,147.167 217,147.5C 216.576,143.81 215.742,143.643 214.5,147C 212.821,147.395 211.155,147.228 209.5,146.5C 208,146.453 207,147.119 206.5,148.5C 180.175,149.5 153.842,149.833 127.5,149.5C 127.649,148.448 127.483,147.448 127,146.5C 123.341,145.846 119.508,145.846 115.5,146.5C 113.664,145.972 111.997,145.306 110.5,144.5C 110.196,143.85 109.863,143.183 109.5,142.5C 109.846,141.304 110.346,141.304 111,142.5C 111.483,141.552 111.649,140.552 111.5,139.5C 138.169,139.333 164.835,139.5 191.5,140C 202.193,140.836 212.86,142.002 223.5,143.5C 225.078,141.347 226.412,139.014 227.5,136.5C 228.458,136.953 229.292,137.619 230,138.5C 230.333,134.833 230.667,131.167 231,127.5C 231.278,128.416 231.778,129.082 232.5,129.5 Z"/></g>
<g><path style="opacity:1" fill="#24d3e4" d="M 105.5,137.5 C 107.285,139.845 108.951,142.178 110.5,144.5C 111.997,145.306 113.664,145.972 115.5,146.5C 119.508,145.846 123.341,145.846 127,146.5C 127.483,147.448 127.649,148.448 127.5,149.5C 153.842,149.833 180.175,149.5 206.5,148.5C 207,147.119 208,146.453 209.5,146.5C 211.155,147.228 212.821,147.395 214.5,147C 215.742,143.643 216.576,143.81 217,147.5C 217.333,147.167 217.667,146.833 218,146.5C 219.113,147.305 220.279,147.972 221.5,148.5C 221.167,149.167 220.833,149.833 220.5,150.5C 219.609,151.11 218.609,151.443 217.5,151.5C 216.21,149.86 214.543,149.36 212.5,150C 210.493,151.713 208.493,153.379 206.5,155C 178.301,155.778 150.301,155.612 122.5,154.5C 117.528,151.344 112.528,148.177 107.5,145C 106.446,142.618 105.779,140.118 105.5,137.5 Z"/></g>
<g><path style="opacity:0.188" fill="#325d70" d="M 84.5,103.5 C 85.4345,104.568 85.7678,105.901 85.5,107.5C 86.3531,115.201 89.3531,121.868 94.5,127.5C 96.0741,134.938 98.0741,142.271 100.5,149.5C 104.61,152.645 108.61,155.645 112.5,158.5C 111.833,158.5 111.5,158.833 111.5,159.5C 105.274,157.101 100.441,153.101 97,147.5C 95.5595,141.856 94.2261,136.189 93,130.5C 89.7304,124.96 86.7304,119.293 84,113.5C 83.4572,110.132 83.6239,106.799 84.5,103.5 Z"/></g>
<g><path style="opacity:0.98" fill="#38d2d7" d="M 250.5,112.5 C 248.476,118.212 245.643,123.545 242,128.5C 240.938,135.749 239.105,142.749 236.5,149.5C 234.41,149.55 233.077,148.55 232.5,146.5C 233.348,144.591 233.682,142.591 233.5,140.5C 233.364,130.648 236.697,122.315 243.5,115.5C 242.026,117.927 242.193,120.26 244,122.5C 245.545,118.575 247.712,115.242 250.5,112.5 Z"/></g>
<g><path style="opacity:1" fill="#2ecddc" d="M 97.5,121.5 C 99.873,123.579 101.206,126.246 101.5,129.5C 102.831,134.803 104.164,140.137 105.5,145.5C 109.492,148.831 113.825,151.664 118.5,154C 121.039,156.37 123.372,158.87 125.5,161.5C 125.55,163.59 124.55,164.923 122.5,165.5C 121.735,164.388 120.735,163.721 119.5,163.5C 117.445,161.445 115.112,159.779 112.5,158.5C 108.61,155.645 104.61,152.645 100.5,149.5C 98.0741,142.271 96.0741,134.938 94.5,127.5C 95.9432,128.335 96.9432,129.668 97.5,131.5C 98.6658,128.163 98.6658,124.83 97.5,121.5 Z"/></g>
<g><path style="opacity:1" fill="#1ed1e8" d="M 217.5,151.5 C 213.805,155.526 210.138,159.526 206.5,163.5C 203.813,163.664 201.146,163.497 198.5,163C 197.965,160.891 196.965,160.391 195.5,161.5C 194.152,159.539 192.819,159.372 191.5,161C 193.497,162.153 193.83,163.653 192.5,165.5C 189.091,160.717 185.424,160.384 181.5,164.5C 178.882,165.373 176.216,166.039 173.5,166.5C 171.172,165.211 168.839,163.878 166.5,162.5C 163.586,166.281 160.752,166.281 158,162.5C 157.275,163.059 156.442,163.392 155.5,163.5C 153.675,162.349 151.675,161.682 149.5,161.5C 149.5,162.833 149.5,164.167 149.5,165.5C 144.57,166.595 139.57,167.261 134.5,167.5C 132.983,167.489 131.816,166.823 131,165.5C 128.642,161.442 125.808,157.775 122.5,154.5C 150.301,155.612 178.301,155.778 206.5,155C 208.493,153.379 210.493,151.713 212.5,150C 214.543,149.36 216.21,149.86 217.5,151.5 Z"/></g>
<g><path style="opacity:1" fill="#27c8e0" d="M 233.5,140.5 C 233.682,142.591 233.348,144.591 232.5,146.5C 233.077,148.55 234.41,149.55 236.5,149.5C 232.613,152.864 228.279,155.697 223.5,158C 218.167,163.667 212.833,169.333 207.5,175C 204.986,176.252 202.32,176.752 199.5,176.5C 201.599,175.388 203.933,174.721 206.5,174.5C 206.5,173.5 206.5,172.5 206.5,171.5C 208.59,171.55 209.923,170.55 210.5,168.5C 210,168.167 209.5,167.833 209,167.5C 207.7,168.707 206.2,169.374 204.5,169.5C 209.5,162.5 215.5,156.5 222.5,151.5C 227.918,149.346 231.585,145.679 233.5,140.5 Z"/></g>
<g><path style="opacity:1" fill="#035571" d="M 102.5,126.5 C 103.537,127.93 104.204,129.597 104.5,131.5C 105.15,133.435 105.483,135.435 105.5,137.5C 105.779,140.118 106.446,142.618 107.5,145C 112.528,148.177 117.528,151.344 122.5,154.5C 125.808,157.775 128.642,161.442 131,165.5C 131.816,166.823 132.983,167.489 134.5,167.5C 140.701,168.237 147.034,169.071 153.5,170C 158.272,172.72 163.272,174.887 168.5,176.5C 173.495,174.336 178.495,172.17 183.5,170C 190.5,169 197.5,168 204.5,167C 205.305,165.887 205.972,164.721 206.5,163.5C 210.138,159.526 213.805,155.526 217.5,151.5C 218.609,151.443 219.609,151.11 220.5,150.5C 221.492,150.328 222.158,150.662 222.5,151.5C 215.5,156.5 209.5,162.5 204.5,169.5C 199.015,170.327 193.348,170.827 187.5,171C 180.953,172.94 174.619,175.44 168.5,178.5C 163.127,176.431 157.793,174.264 152.5,172C 145.5,171 138.5,170 131.5,169C 129.636,166.312 127.636,163.812 125.5,161.5C 123.372,158.87 121.039,156.37 118.5,154C 113.825,151.664 109.492,148.831 105.5,145.5C 104.164,140.137 102.831,134.803 101.5,129.5C 102.404,128.791 102.737,127.791 102.5,126.5 Z"/></g>
<g><path style="opacity:0.086" fill="#325871" d="M 248.5,82.5 C 248.017,90.5525 249.517,98.2192 253,105.5C 253.667,108.167 253.667,110.833 253,113.5C 250.27,119.293 247.27,124.96 244,130.5C 242.793,136.201 241.46,141.868 240,147.5C 235.919,152.964 230.752,157.131 224.5,160C 219.477,166.021 214.144,171.688 208.5,177C 201.579,178.436 194.579,179.436 187.5,180C 182.613,182.277 177.613,184.277 172.5,186C 169.833,186.667 167.167,186.667 164.5,186C 159.387,184.277 154.387,182.277 149.5,180C 142.421,179.436 135.421,178.436 128.5,177C 122.712,171.23 117.045,165.397 111.5,159.5C 111.5,158.833 111.833,158.5 112.5,158.5C 115.112,159.779 117.445,161.445 119.5,163.5C 122.285,167.458 125.285,171.291 128.5,175C 135.435,176.409 142.435,177.409 149.5,178C 154.843,180.006 160.177,182.006 165.5,184C 167.833,184.667 170.167,184.667 172.5,184C 180.804,178.954 189.804,176.454 199.5,176.5C 202.32,176.752 204.986,176.252 207.5,175C 212.833,169.333 218.167,163.667 223.5,158C 228.279,155.697 232.613,152.864 236.5,149.5C 239.105,142.749 240.938,135.749 242,128.5C 245.643,123.545 248.476,118.212 250.5,112.5C 251.634,110.034 251.801,107.367 251,104.5C 249.268,101.031 248.102,97.3641 247.5,93.5C 247.127,88.3978 247.46,84.7312 248.5,82.5 Z"/></g>
<g><path style="opacity:1" fill="#1cc6e9" d="M 125.5,161.5 C 127.636,163.812 129.636,166.312 131.5,169C 138.5,170 145.5,171 152.5,172C 157.793,174.264 163.127,176.431 168.5,178.5C 174.619,175.44 180.953,172.94 187.5,171C 193.348,170.827 199.015,170.327 204.5,169.5C 206.2,169.374 207.7,168.707 209,167.5C 209.5,167.833 210,168.167 210.5,168.5C 209.923,170.55 208.59,171.55 206.5,171.5C 206.5,172.5 206.5,173.5 206.5,174.5C 203.933,174.721 201.599,175.388 199.5,176.5C 189.804,176.454 180.804,178.954 172.5,184C 170.167,184.667 167.833,184.667 165.5,184C 160.177,182.006 154.843,180.006 149.5,178C 142.435,177.409 135.435,176.409 128.5,175C 125.285,171.291 122.285,167.458 119.5,163.5C 120.735,163.721 121.735,164.388 122.5,165.5C 124.55,164.923 125.55,163.59 125.5,161.5 Z"/></g>
<g><path style="opacity:1" fill="#1ccdec" d="M 206.5,163.5 C 205.972,164.721 205.305,165.887 204.5,167C 197.5,168 190.5,169 183.5,170C 178.495,172.17 173.495,174.336 168.5,176.5C 163.272,174.887 158.272,172.72 153.5,170C 147.034,169.071 140.701,168.237 134.5,167.5C 139.57,167.261 144.57,166.595 149.5,165.5C 149.5,164.167 149.5,162.833 149.5,161.5C 151.675,161.682 153.675,162.349 155.5,163.5C 156.442,163.392 157.275,163.059 158,162.5C 160.752,166.281 163.586,166.281 166.5,162.5C 168.839,163.878 171.172,165.211 173.5,166.5C 176.216,166.039 178.882,165.373 181.5,164.5C 185.424,160.384 189.091,160.717 192.5,165.5C 193.83,163.653 193.497,162.153 191.5,161C 192.819,159.372 194.152,159.539 195.5,161.5C 196.965,160.391 197.965,160.891 198.5,163C 201.146,163.497 203.813,163.664 206.5,163.5 Z"/></g>
</svg>
